<svg xmlns="http://www.w3.org/2000/svg" xmlns:xlink="http://www.w3.org/1999/xlink" width="400" zoomAndPan="magnify" viewBox="0 0 300 225" height="300" preserveAspectRatio="xMidYMid meet" version="1.0"><defs><clipPath id="a3bf58f7ab"><path d="M 178 51 L 240 51 L 240 95 L 178 95 Z M 178 51 " clip-rule="nonzero"/></clipPath><clipPath id="0f4a44ba3d"><path d="M 178.445312 42.019531 L 253.269531 57.941406 L 243.746094 102.6875 L 168.921875 86.765625 Z M 178.445312 42.019531 " clip-rule="nonzero"/></clipPath><clipPath id="99056f8d27"><path d="M 151.574219 6.796875 L 293.886719 37.082031 L 263.601562 179.394531 L 121.289062 149.109375 Z M 151.574219 6.796875 " clip-rule="nonzero"/></clipPath><clipPath id="f0ea125eb1"><path d="M 196 63 L 222 63 L 222 84 L 196 84 Z M 196 63 " clip-rule="nonzero"/></clipPath><clipPath id="3efca8273c"><path d="M 199.140625 58.507812 L 221.878906 63.347656 L 217.039062 86.085938 L 194.300781 81.246094 Z M 199.140625 58.507812 " clip-rule="nonzero"/></clipPath><clipPath id="c9899a120c"><path d="M 199.140625 58.507812 L 221.878906 63.347656 L 217.039062 86.085938 L 194.300781 81.246094 Z M 199.140625 58.507812 " clip-rule="nonzero"/></clipPath><clipPath id="bbd27dac97"><path d="M 129 82 L 192 82 L 192 125 L 129 125 Z M 129 82 " clip-rule="nonzero"/></clipPath><clipPath id="1923e8af08"><path d="M 126.242188 76.859375 L 202.507812 84.382812 L 198.070312 129.378906 L 121.804688 121.855469 Z M 126.242188 76.859375 " clip-rule="nonzero"/></clipPath><clipPath id="4e7e6c353d"><path d="M 95.625 44.839844 L 240.53125 59.132812 L 226.234375 204.039062 L 81.332031 189.746094 Z M 95.625 44.839844 " clip-rule="nonzero"/></clipPath><clipPath id="fffb844c26"><path d="M 144 94 L 175 94 L 175 117 L 144 117 Z M 144 94 " clip-rule="nonzero"/></clipPath><clipPath id="fab266a02c"><path d="M 146.738281 90.515625 L 175.6875 93.679688 L 172.941406 118.820312 L 143.992188 115.65625 Z M 146.738281 90.515625 " clip-rule="nonzero"/></clipPath><clipPath id="bf32357388"><path d="M 175.367188 93.644531 L 146.417969 90.480469 L 143.671875 115.621094 L 172.621094 118.785156 Z M 175.367188 93.644531 " clip-rule="nonzero"/></clipPath><clipPath id="6081e7fa42"><path d="M 92 42 L 155 42 L 155 87 L 92 87 Z M 92 42 " clip-rule="nonzero"/></clipPath><clipPath id="8ab940be14"><path d="M 82.851562 47.777344 L 158.582031 35.996094 L 165.570312 80.910156 L 89.835938 92.691406 Z M 82.851562 47.777344 " clip-rule="nonzero"/></clipPath><clipPath id="74a0e8a0c8"><path d="M 45.226562 24.445312 L 188.660156 2.132812 L 210.976562 145.566406 L 67.542969 167.878906 Z M 45.226562 24.445312 " clip-rule="nonzero"/></clipPath><clipPath id="eaf39f3db6"><path d="M 104 57 L 143 57 L 143 80 L 104 80 Z M 104 57 " clip-rule="nonzero"/></clipPath><clipPath id="e72708cf3a"><path d="M 102.664062 61.925781 L 141.175781 55.863281 L 144.21875 75.199219 L 105.707031 81.261719 Z M 102.664062 61.925781 " clip-rule="nonzero"/></clipPath><clipPath id="a77711aa7f"><path d="M 104.175781 71.527344 C 105.011719 76.828125 109.984375 80.453125 115.289062 79.617188 L 134.492188 76.59375 C 139.792969 75.757812 143.417969 70.785156 142.582031 65.480469 C 141.746094 60.179688 136.769531 56.554688 131.46875 57.390625 L 112.265625 60.414062 C 106.960938 61.25 103.339844 66.222656 104.175781 71.527344 Z M 104.175781 71.527344 " clip-rule="nonzero"/></clipPath><clipPath id="ec31dac9ae"><path d="M 102.664062 61.925781 L 141.011719 55.886719 L 144.03125 75.0625 L 105.683594 81.097656 Z M 102.664062 61.925781 " clip-rule="nonzero"/></clipPath><clipPath id="faf50c39c3"><path d="M 49.304688 27.808594 L 185.816406 6.316406 L 207.304688 142.828125 L 70.796875 164.316406 Z M 49.304688 27.808594 " clip-rule="nonzero"/></clipPath><clipPath id="7d60ceecdf"><path d="M 104 57 L 143 57 L 143 79 L 104 79 Z M 104 57 " clip-rule="nonzero"/></clipPath><clipPath id="52ced32cd1"><path d="M 102.664062 61.925781 L 141.175781 55.863281 L 144.21875 75.199219 L 105.707031 81.261719 Z M 102.664062 61.925781 " clip-rule="nonzero"/></clipPath><clipPath id="194f67a16d"><path d="M 104.175781 71.527344 C 105.011719 76.828125 109.984375 80.453125 115.289062 79.617188 L 134.492188 76.59375 C 139.792969 75.757812 143.417969 70.785156 142.582031 65.480469 C 141.746094 60.179688 136.769531 56.554688 131.46875 57.390625 L 112.265625 60.414062 C 106.960938 61.25 103.339844 66.222656 104.175781 71.527344 Z M 104.175781 71.527344 " clip-rule="nonzero"/></clipPath><clipPath id="250440c640"><path d="M 102.664062 61.925781 L 141.011719 55.886719 L 144.03125 75.0625 L 105.683594 81.097656 Z M 102.664062 61.925781 " clip-rule="nonzero"/></clipPath><clipPath id="d8efc15805"><path d="M 49.304688 27.808594 L 185.816406 6.316406 L 207.304688 142.828125 L 70.796875 164.316406 Z M 49.304688 27.808594 " clip-rule="nonzero"/></clipPath></defs><path fill="#231f20" d="M 164.953125 222.757812 L 101.429688 222.757812 L 12.5 169.269531 L 79.136719 133.867188 Z M 164.953125 222.757812 " fill-opacity="0.2" fill-rule="nonzero"/><path fill="#947455" d="M 79.136719 88.164062 L 79.136719 167.765625 L 164.953125 222.757812 L 164.953125 140.742188 Z M 79.136719 88.164062 " fill-opacity="1" fill-rule="nonzero"/><path fill="#ffffff" d="M 79.136719 88.164062 L 161.832031 146.144531 L 164.953125 222.757812 L 164.953125 140.742188 Z M 79.136719 88.164062 " fill-opacity="0.22" fill-rule="nonzero"/><path fill="#231f20" d="M 79.136719 88.164062 L 79.136719 107.367188 L 164.953125 162.359375 L 164.953125 140.742188 Z M 79.136719 88.164062 " fill-opacity="0.2" fill-rule="nonzero"/><path fill="#b39069" d="M 164.953125 222.757812 L 164.953125 140.742188 L 254.832031 85.746094 L 254.832031 167.765625 Z M 164.953125 222.757812 " fill-opacity="1" fill-rule="nonzero"/><path fill="#231f20" d="M 164.953125 162.359375 L 164.953125 140.742188 L 254.832031 85.746094 L 254.832031 107.367188 Z M 164.953125 162.359375 " fill-opacity="0.2" fill-rule="nonzero"/><path fill="#ffffff" d="M 164.953125 222.757812 L 164.953125 140.742188 L 254.832031 85.746094 L 169.921875 146.144531 Z M 164.953125 222.757812 " fill-opacity="0.22" fill-rule="nonzero"/><path fill="#b5926b" d="M 164.953125 140.742188 L 79.136719 88.164062 L 166.984375 35.734375 Z M 164.953125 140.742188 " fill-opacity="1" fill-rule="nonzero"/><path fill="#dab78d" d="M 79.136719 88.164062 L 48.8125 54.671875 L 136.660156 2.242188 L 167.4375 35.566406 Z M 79.136719 88.164062 " fill-opacity="1" fill-rule="nonzero"/><path fill="#dab78d" d="M 79.136719 88.164062 L 48.8125 121.65625 L 132.28125 175.972656 L 164.953125 140.835938 Z M 79.136719 88.164062 " fill-opacity="1" fill-rule="nonzero"/><path fill="#dab78d" d="M 197.761719 2.242188 L 167.4375 35.734375 L 254.832031 85.746094 L 287.5 50.609375 Z M 197.761719 2.242188 " fill-opacity="1" fill-rule="nonzero"/><path fill="#dab78d" d="M 199.585938 147.402344 L 164.953125 140.839844 L 254.832031 85.746094 L 287.5 91.226562 Z M 199.585938 147.402344 " fill-opacity="1" fill-rule="nonzero"/><path fill="#967657" d="M 164.953125 140.742188 L 166.984375 35.734375 L 254.832031 85.746094 Z M 164.953125 140.742188 " fill-opacity="1" fill-rule="nonzero"/><path fill="#443320" d="M 151.738281 203.21875 L 152.011719 203.554688 L 152.019531 203.246094 C 152.046875 202.398438 152.195312 201.707031 152.484375 201.128906 C 152.734375 200.625 153.011719 200.300781 153.359375 200.109375 C 153.5 200.035156 153.648438 199.980469 153.808594 199.949219 L 154.253906 199.855469 L 153.667969 199.535156 C 153.503906 199.445312 153.335938 199.363281 153.171875 199.292969 C 150.945312 198.324219 149.164062 199.28125 149.203125 201.429688 L 149.210938 201.75 L 149.484375 201.765625 C 150.351562 201.8125 150.859375 202.136719 151.738281 203.21875 Z M 151.738281 203.21875 " fill-opacity="1" fill-rule="nonzero"/><path fill="#443320" d="M 155.683594 200.828125 L 155.1875 200.484375 L 155.539062 201.054688 C 156.578125 202.71875 157.101562 204.363281 157.230469 206.378906 L 157.253906 206.722656 L 157.523438 206.707031 C 158.25 206.660156 158.921875 207.082031 159.644531 208.042969 L 159.941406 208.4375 L 159.941406 208.078125 C 159.929688 205.785156 157.941406 202.398438 155.683594 200.828125 Z M 155.683594 200.828125 " fill-opacity="1" fill-rule="nonzero"/><path fill="#443320" d="M 156.914062 206.480469 L 156.9375 206.242188 C 156.996094 205.636719 156.757812 204.28125 156.40625 203.222656 C 156.296875 202.886719 156.15625 202.5 155.972656 202.085938 C 155.789062 201.671875 155.558594 201.230469 155.261719 200.789062 C 155.011719 200.421875 154.773438 200.175781 154.53125 200.042969 C 154.328125 199.929688 154.128906 199.898438 153.917969 199.9375 C 153.84375 199.953125 153.769531 199.976562 153.695312 200.011719 C 153.617188 200.046875 153.539062 200.089844 153.453125 200.148438 C 153.140625 200.351562 152.890625 200.664062 152.667969 201.128906 C 152.398438 201.695312 152.253906 202.386719 152.226562 203.238281 L 152.21875 203.523438 L 152.488281 203.582031 C 152.914062 203.667969 153.347656 203.816406 153.773438 204.015625 C 154.027344 204.132812 154.289062 204.277344 154.546875 204.4375 C 155.25 204.875 155.964844 205.480469 156.675781 206.230469 Z M 156.914062 206.480469 " fill-opacity="1" fill-rule="nonzero"/><path fill="#443320" d="M 154.671875 204.777344 L 154.605469 204.734375 C 154.234375 204.5 154.003906 204.628906 154.003906 205.070312 L 154.003906 210.308594 C 154.015625 210.457031 153.949219 210.492188 153.808594 210.421875 C 153.65625 210.34375 153.472656 210.152344 153.449219 209.984375 C 153.441406 209.917969 153.429688 209.867188 153.417969 209.816406 C 153.394531 209.695312 153.371094 209.582031 153.363281 209.261719 C 153.34375 208.824219 153.074219 208.351562 152.695312 208.113281 C 152.5 207.988281 152.320312 207.949219 152.179688 207.996094 C 152.042969 208.046875 151.96875 208.175781 151.96875 208.371094 L 151.972656 208.871094 C 151.96875 208.882812 151.96875 208.90625 151.96875 208.933594 C 152.035156 210.105469 152.6875 211.113281 153.902344 211.929688 C 153.9375 211.949219 153.96875 211.972656 154 211.992188 C 154.472656 212.292969 154.835938 212.390625 155.082031 212.289062 C 155.410156 212.15625 155.40625 211.703125 155.402344 211.59375 L 155.402344 205.960938 C 155.402344 205.5625 155.074219 205.035156 154.671875 204.777344 Z M 154.671875 204.777344 " fill-opacity="1" fill-rule="nonzero"/><path fill="#443320" d="M 155.792969 200.15625 C 155.863281 200.246094 155.929688 200.332031 155.992188 200.40625 C 156.117188 200.550781 156.226562 200.640625 156.316406 200.699219 C 156.429688 200.773438 156.515625 200.792969 156.578125 200.789062 C 157.011719 200.785156 156.953125 199.777344 156.933594 199.574219 L 156.894531 199.070312 L 156.601562 199.261719 C 156.308594 199.453125 156.046875 199.328125 156.039062 199.324219 L 155.996094 199.304688 C 155.980469 199.300781 155.96875 199.296875 155.953125 199.296875 C 155.683594 199.230469 155.597656 199.332031 155.570312 199.433594 C 155.507812 199.675781 155.746094 200.078125 155.773438 200.121094 Z M 155.792969 200.15625 " fill-opacity="1" fill-rule="nonzero"/><path fill="#443320" d="M 159.332031 202.695312 L 159.277344 203.132812 C 159.234375 203.464844 159.082031 203.496094 159.078125 203.496094 L 159.046875 203.507812 C 159.039062 203.511719 159.03125 203.515625 159.023438 203.523438 C 158.871094 203.617188 158.882812 203.78125 158.914062 203.902344 C 158.996094 204.191406 159.285156 204.453125 159.316406 204.484375 L 159.34375 204.503906 C 159.390625 204.542969 159.441406 204.574219 159.484375 204.605469 C 159.503906 204.617188 159.519531 204.625 159.539062 204.636719 C 159.808594 204.792969 159.925781 204.738281 159.980469 204.664062 C 160.167969 204.398438 159.707031 203.449219 159.613281 203.261719 Z M 159.332031 202.695312 " fill-opacity="1" fill-rule="nonzero"/><path fill="#443320" d="M 158.90625 200.433594 L 158.484375 200.414062 C 158.320312 200.402344 156.863281 200.351562 156.957031 201.191406 C 156.996094 201.539062 157.273438 201.960938 157.78125 202.4375 L 157.808594 202.460938 C 157.828125 202.476562 157.898438 202.53125 157.996094 202.589844 C 158.183594 202.710938 158.46875 202.855469 158.65625 202.765625 C 158.820312 202.683594 158.855469 202.4375 158.753906 202.027344 L 158.738281 201.980469 C 158.734375 201.976562 158.515625 201.421875 158.761719 200.800781 Z M 158.90625 200.433594 " fill-opacity="1" fill-rule="nonzero"/><path fill="#443320" d="M 115.355469 187.484375 L 127.773438 195.359375 C 128.105469 195.570312 128.410156 195.597656 128.585938 195.429688 C 128.757812 195.261719 128.777344 194.933594 128.628906 194.546875 L 122.386719 178.257812 C 122.226562 177.835938 121.902344 177.433594 121.539062 177.199219 L 121.53125 177.195312 C 121.171875 176.96875 120.847656 176.957031 120.683594 177.167969 C 119.199219 179.058594 115.863281 183.691406 114.496094 185.59375 C 114.351562 185.796875 114.371094 186.144531 114.546875 186.53125 C 114.722656 186.917969 115.023438 187.273438 115.355469 187.484375 Z M 121.84375 183.292969 C 121.8125 182.777344 121.941406 182.464844 122.226562 182.363281 C 122.339844 182.324219 122.464844 182.324219 122.582031 182.339844 C 122.363281 182.691406 122.46875 183.449219 122.902344 184.496094 C 123.976562 187.097656 123.554688 188.285156 123.398438 188.589844 L 123.101562 189.171875 L 123.703125 188.980469 C 123.910156 188.914062 124.070312 188.761719 124.1875 188.585938 C 124.183594 188.652344 124.179688 188.71875 124.175781 188.789062 C 124.113281 189.527344 123.492188 190.289062 122.480469 190.058594 C 122.839844 189.550781 122.929688 188.40625 122.476562 186.933594 L 122.0625 185.570312 L 122.117188 186.777344 C 122.199219 188.664062 121.1875 189.320312 120.199219 188.84375 C 119.628906 188.570312 119.195312 187.964844 119.011719 187.183594 C 118.644531 185.605469 119.5 184.65625 120.125 183.960938 L 120.179688 183.902344 C 120.5 183.550781 120.539062 183.164062 120.484375 182.847656 C 120.558594 182.957031 120.621094 183.074219 120.671875 183.199219 C 120.933594 183.835938 120.820312 184.5 120.589844 184.878906 C 120.457031 185.089844 120.398438 185.433594 120.613281 185.753906 C 120.714844 185.910156 120.90625 186.097656 121.230469 186.113281 C 121.777344 186.140625 121.972656 185.242188 121.84375 183.292969 Z M 121.84375 183.292969 " fill-opacity="1" fill-rule="nonzero"/><path fill="#443320" d="M 142.9375 195.421875 L 142.9375 192.207031 C 142.9375 191.464844 142.671875 190.777344 142.132812 190.152344 C 140.164062 188.085938 137.054688 186.351562 136.015625 186.097656 C 135.164062 185.890625 135.003906 186.566406 135.039062 186.9375 L 135.0625 190.632812 C 135.0625 192.894531 137.386719 195.425781 137.964844 196.019531 L 137.964844 199.164062 C 137.09375 198.753906 134.996094 197.839844 134.996094 198.613281 C 134.996094 198.769531 135.0625 198.957031 135.199219 199.171875 C 135.84375 200.214844 138.015625 201.855469 139.042969 202.507812 L 139.050781 202.511719 C 140.058594 203.148438 142.9375 204.695312 142.9375 203.5 C 142.9375 202.542969 140.714844 200.945312 139.925781 200.40625 L 139.925781 197.25 C 142.886719 198.527344 142.9375 195.453125 142.9375 195.421875 Z M 136.925781 188.960938 C 136.917969 188.953125 136.101562 188.316406 136.101562 187.792969 C 136.101562 187.511719 136.488281 187.277344 139.097656 188.863281 C 139.175781 188.910156 139.25 188.957031 139.324219 189.003906 C 140.652344 189.84375 141.453125 190.660156 141.742188 191.121094 C 141.804688 191.21875 141.875 191.351562 141.875 191.441406 C 141.875 191.453125 141.859375 191.480469 141.804688 191.496094 C 141.417969 191.609375 139.820312 191.046875 137.945312 189.738281 L 137.820312 189.652344 L 136.871094 190.953125 L 137.109375 189.097656 Z M 136.925781 188.960938 " fill-opacity="1" fill-rule="nonzero"/><g clip-path="url(#a3bf58f7ab)"><g clip-path="url(#0f4a44ba3d)"><g clip-path="url(#99056f8d27)"><path fill="#443320" d="M 218.894531 52.476562 C 215.613281 52.140625 212.394531 52.746094 209.101562 54.308594 L 207.40625 55.121094 L 206.980469 54.800781 C 206.367188 54.335938 204.683594 53.253906 204.003906 52.90625 C 203.183594 52.46875 199.90625 51.773438 198.730469 51.78125 C 196.621094 51.796875 194.648438 52.410156 192.96875 53.558594 C 191.742188 54.414062 190.976562 55.152344 190.390625 56.058594 C 190.046875 56.578125 189.792969 56.828125 189.46875 56.921875 C 187.175781 57.59375 184.554688 59.082031 183.046875 60.574219 C 180.378906 63.226562 179.367188 65.246094 178.609375 69.496094 C 178.09375 72.332031 178.117188 72.902344 178.75 75.445312 C 179.714844 79.304688 181.738281 82.476562 184.796875 84.929688 C 186.273438 86.113281 187.257812 86.671875 189.066406 87.375 C 190.246094 87.828125 192.433594 88.324219 206.019531 91.230469 C 223.070312 94.886719 222.191406 94.730469 225.007812 94.441406 C 226.652344 94.285156 229.128906 93.621094 230.574219 92.957031 C 232.953125 91.882812 235.746094 89.53125 237.023438 87.539062 C 238.492188 85.269531 239.46875 82.605469 239.742188 80.09375 C 239.957031 78.183594 239.917969 77.144531 239.59375 75.539062 C 238.886719 71.976562 237.164062 69.027344 234.613281 67.035156 C 233.929688 66.496094 233.894531 66.449219 233.84375 65.59375 C 233.734375 63.859375 232.132812 60.558594 230.503906 58.730469 C 227.769531 55.625 224.988281 53.832031 221.683594 52.996094 C 220.820312 52.769531 219.5625 52.542969 218.894531 52.476562 Z M 221.617188 56.582031 C 222.789062 56.945312 225.3125 58.441406 226.375 59.390625 C 228.972656 61.757812 230.171875 64.101562 230.546875 67.535156 C 230.667969 68.589844 230.730469 68.777344 231.035156 68.914062 C 232.066406 69.394531 232.375 69.578125 232.914062 70.113281 C 236.105469 73.242188 237.152344 78.007812 235.589844 82.417969 C 234.417969 85.738281 231.625 88.785156 228.601562 90.027344 C 227.539062 90.457031 225.578125 90.953125 224.238281 91.101562 L 223.050781 91.242188 L 206.734375 87.796875 L 190.417969 84.367188 L 189.179688 83.773438 C 186.460938 82.4375 184.460938 80.375 183.105469 77.472656 C 182.347656 75.847656 181.980469 74.304688 181.914062 72.503906 C 181.863281 71.320312 181.921875 70.765625 182.285156 69.132812 C 183.09375 65.402344 183.898438 64.078125 186.683594 61.957031 C 187.808594 61.09375 188.742188 60.667969 190.234375 60.332031 C 192.609375 59.808594 192.414062 59.914062 192.714844 59.046875 C 193.640625 56.402344 196.820312 54.828125 200.21875 55.347656 C 202.464844 55.695312 204.097656 56.695312 205.761719 58.75 C 206.257812 59.363281 206.730469 59.867188 206.796875 59.898438 C 206.878906 59.914062 207.289062 59.625 207.726562 59.269531 C 209.769531 57.585938 211.632812 56.660156 213.980469 56.128906 C 215.898438 55.710938 218.851562 55.746094 220.347656 56.207031 C 220.582031 56.273438 221.136719 56.449219 221.617188 56.582031 Z M 221.617188 56.582031 " fill-opacity="1" fill-rule="nonzero"/></g></g></g><g clip-path="url(#f0ea125eb1)"><g clip-path="url(#3efca8273c)"><g clip-path="url(#c9899a120c)"><path fill="#443320" d="M 221.34375 63.492188 C 221.726562 63.902344 221.847656 64.492188 221.648438 65.015625 L 214.832031 82.996094 C 214.675781 83.414062 214.332031 83.738281 213.898438 83.871094 C 213.46875 84.003906 213.003906 83.933594 212.632812 83.675781 L 207.761719 80.320312 L 203.996094 82.976562 C 203.507812 83.328125 202.851562 83.335938 202.347656 83.003906 C 201.84375 82.675781 201.597656 82.066406 201.722656 81.476562 L 202.519531 77.742188 C 202.558594 77.5625 202.660156 77.40625 202.808594 77.296875 L 212.035156 70.722656 C 212.355469 70.496094 212.4375 70.0625 212.226562 69.738281 C 212.015625 69.410156 211.585938 69.300781 211.25 69.496094 L 200.445312 75.636719 L 196.917969 72.820312 C 196.496094 72.484375 196.292969 71.945312 196.390625 71.414062 C 196.492188 70.886719 196.871094 70.453125 197.382812 70.285156 L 219.835938 63.105469 C 220.371094 62.9375 220.957031 63.089844 221.34375 63.492188 Z M 221.34375 63.492188 " fill-opacity="1" fill-rule="nonzero"/></g></g></g><g clip-path="url(#bbd27dac97)"><g clip-path="url(#1923e8af08)"><g clip-path="url(#4e7e6c353d)"><path fill="#443320" d="M 167.605469 82.757812 C 164.308594 82.789062 161.175781 83.75 158.078125 85.667969 L 156.484375 86.664062 L 156.027344 86.394531 C 155.367188 86 153.570312 85.109375 152.855469 84.839844 C 151.992188 84.496094 148.660156 84.167969 147.488281 84.308594 C 145.398438 84.558594 143.503906 85.386719 141.960938 86.714844 C 140.835938 87.703125 140.15625 88.519531 139.675781 89.484375 C 139.394531 90.042969 139.167969 90.320312 138.855469 90.445312 C 136.652344 91.371094 134.210938 93.140625 132.878906 94.789062 C 130.523438 97.722656 129.742188 99.84375 129.460938 104.148438 C 129.261719 107.027344 129.351562 107.589844 130.261719 110.046875 C 131.648438 113.777344 134.011719 116.707031 137.328125 118.800781 C 138.925781 119.816406 139.964844 120.257812 141.839844 120.757812 C 143.0625 121.078125 145.292969 121.328125 159.117188 122.707031 C 176.472656 124.445312 175.578125 124.386719 178.347656 123.789062 C 179.964844 123.449219 182.351562 122.515625 183.714844 121.695312 C 185.957031 120.363281 188.472656 117.714844 189.523438 115.59375 C 190.730469 113.175781 191.402344 110.417969 191.394531 107.890625 C 191.398438 105.96875 191.246094 104.941406 190.742188 103.378906 C 189.644531 99.917969 187.605469 97.179688 184.847656 95.480469 C 184.109375 95.023438 184.070312 94.976562 183.925781 94.136719 C 183.625 92.421875 181.664062 89.320312 179.839844 87.6875 C 176.777344 84.902344 173.816406 83.425781 170.4375 82.964844 C 169.554688 82.835938 168.277344 82.753906 167.605469 82.757812 Z M 170.769531 86.535156 C 171.972656 86.769531 174.652344 87.972656 175.808594 88.800781 C 178.65625 90.863281 180.109375 93.0625 180.859375 96.429688 C 181.101562 97.464844 181.183594 97.644531 181.5 97.746094 C 182.578125 98.109375 182.90625 98.257812 183.5 98.730469 C 187.023438 101.484375 188.589844 106.105469 187.527344 110.664062 C 186.734375 114.09375 184.292969 117.429688 181.429688 119.003906 C 180.421875 119.542969 178.523438 120.257812 177.210938 120.554688 L 176.042969 120.824219 L 159.449219 119.214844 L 142.847656 117.621094 L 141.554688 117.164062 C 138.703125 116.140625 136.488281 114.3125 134.816406 111.582031 C 133.882812 110.046875 133.347656 108.554688 133.082031 106.773438 C 132.898438 105.601562 132.894531 105.046875 133.074219 103.378906 C 133.460938 99.582031 134.113281 98.179688 136.648438 95.761719 C 137.671875 94.777344 138.550781 94.253906 140 93.753906 C 142.300781 92.96875 142.117188 93.09375 142.320312 92.199219 C 142.945312 89.464844 145.929688 87.550781 149.367188 87.6875 C 151.640625 87.785156 153.371094 88.597656 155.253906 90.453125 C 155.8125 91.007812 156.339844 91.457031 156.40625 91.480469 C 156.492188 91.488281 156.867188 91.152344 157.265625 90.75 C 159.105469 88.851562 160.855469 87.726562 163.128906 86.9375 C 164.988281 86.308594 167.929688 86.011719 169.46875 86.308594 C 169.707031 86.34375 170.28125 86.457031 170.769531 86.535156 Z M 170.769531 86.535156 " fill-opacity="1" fill-rule="nonzero"/></g></g></g><g clip-path="url(#fffb844c26)"><g clip-path="url(#fab266a02c)"><g clip-path="url(#bf32357388)"><path fill="#443320" d="M 171.40625 100.453125 C 171.546875 99.136719 170.597656 97.953125 169.28125 97.808594 C 167.960938 97.664062 166.777344 98.617188 166.632812 99.933594 L 166.023438 105.5 L 170.796875 106.019531 Z M 174.585938 100.800781 L 173.371094 111.933594 C 173.035156 115.011719 170.273438 117.230469 167.195312 116.894531 C 164.117188 116.558594 161.902344 113.796875 162.238281 110.71875 L 163.203125 101.851562 C 163.011719 102.792969 162.589844 103.695312 161.921875 104.46875 L 154.519531 113.078125 C 152.476562 115.457031 148.9375 115.703125 146.613281 113.628906 C 144.289062 111.554688 144.066406 107.945312 146.109375 105.566406 L 153.515625 96.957031 C 155.558594 94.574219 159.101562 94.332031 161.421875 96.40625 C 162.703125 97.550781 163.347656 99.171875 163.320312 100.789062 L 163.453125 99.585938 C 163.789062 96.507812 166.550781 94.292969 169.625 94.628906 C 172.703125 94.964844 174.921875 97.726562 174.585938 100.800781 Z M 159.496094 102.382812 C 160.417969 101.3125 160.292969 99.6875 159.289062 98.789062 C 158.316406 97.921875 156.835938 98.003906 155.941406 99.039062 L 152.082031 103.523438 L 155.75 106.742188 Z M 148.75 111.242188 C 148.785156 111.277344 148.824219 111.304688 148.859375 111.335938 L 148.675781 111.175781 C 148.699219 111.195312 148.722656 111.21875 148.75 111.242188 Z M 148.75 111.242188 " fill-opacity="1" fill-rule="nonzero"/></g></g></g><g clip-path="url(#6081e7fa42)"><g clip-path="url(#8ab940be14)"><g clip-path="url(#74a0e8a0c8)"><path fill="#443320" d="M 124.347656 43.152344 C 121.164062 44.007812 118.375 45.71875 115.855469 48.347656 L 114.558594 49.714844 L 114.050781 49.5625 C 113.3125 49.347656 111.351562 48.933594 110.59375 48.851562 C 109.671875 48.738281 106.363281 49.25 105.269531 49.679688 C 103.308594 50.445312 101.683594 51.714844 100.523438 53.390625 C 99.679688 54.625 99.226562 55.585938 99.003906 56.640625 C 98.871094 57.25 98.71875 57.574219 98.449219 57.773438 C 96.550781 59.21875 94.628906 61.539062 93.75 63.46875 C 92.203125 66.898438 91.980469 69.140625 92.78125 73.378906 C 93.308594 76.210938 93.535156 76.734375 95.03125 78.886719 C 97.304688 82.148438 100.320312 84.390625 104.054688 85.589844 C 105.851562 86.171875 106.96875 86.34375 108.910156 86.355469 C 110.171875 86.359375 112.390625 86.042969 126.109375 83.925781 C 143.335938 81.273438 142.457031 81.4375 144.988281 80.171875 C 146.46875 79.4375 148.542969 77.9375 149.660156 76.800781 C 151.496094 74.953125 153.265625 71.761719 153.753906 69.449219 C 154.320312 66.804688 154.28125 63.972656 153.640625 61.53125 C 153.164062 59.667969 152.757812 58.710938 151.882812 57.324219 C 149.953125 54.253906 147.296875 52.113281 144.207031 51.15625 C 143.375 50.898438 143.328125 50.863281 142.976562 50.085938 C 142.257812 48.503906 139.585938 45.992188 137.414062 44.867188 C 133.757812 42.9375 130.519531 42.25 127.136719 42.648438 C 126.25 42.742188 124.996094 42.980469 124.347656 43.152344 Z M 128.351562 46.015625 C 129.574219 45.941406 132.464844 46.441406 133.792969 46.949219 C 137.0625 48.234375 139.015625 50 140.585938 53.070312 C 141.078125 54.011719 141.199219 54.164062 141.535156 54.183594 C 142.667969 54.265625 143.019531 54.328125 143.714844 54.636719 C 147.808594 56.421875 150.480469 60.5 150.59375 65.175781 C 150.679688 68.691406 149.152344 72.53125 146.773438 74.769531 C 145.933594 75.546875 144.277344 76.707031 143.082031 77.324219 L 142.019531 77.875 L 125.558594 80.464844 L 109.101562 83.070312 L 107.734375 82.953125 C 104.71875 82.675781 102.117188 81.457031 99.820312 79.230469 C 98.535156 77.980469 97.640625 76.671875 96.941406 75.015625 C 96.46875 73.925781 96.328125 73.386719 96.085938 71.734375 C 95.511719 67.960938 95.792969 66.4375 97.640625 63.46875 C 98.386719 62.261719 99.105469 61.53125 100.378906 60.6875 C 102.410156 59.351562 102.265625 59.519531 102.238281 58.605469 C 102.160156 55.804688 104.570312 53.203125 107.929688 52.480469 C 110.152344 52.007812 112.03125 52.359375 114.316406 53.683594 C 114.996094 54.078125 115.617188 54.386719 115.6875 54.386719 C 115.773438 54.375 116.054688 53.957031 116.335938 53.46875 C 117.644531 51.171875 119.054688 49.644531 121.058594 48.316406 C 122.699219 47.242188 125.46875 46.222656 127.03125 46.121094 C 127.273438 46.097656 127.855469 46.066406 128.351562 46.015625 Z M 128.351562 46.015625 " fill-opacity="1" fill-rule="nonzero"/></g></g></g><g clip-path="url(#eaf39f3db6)"><g clip-path="url(#e72708cf3a)"><g clip-path="url(#a77711aa7f)"><g clip-path="url(#ec31dac9ae)"><g clip-path="url(#faf50c39c3)"><path fill="#443320" d="M 124.519531 45.550781 C 121.460938 46.429688 119.027344 47.90625 116.691406 50.335938 L 115.351562 51.722656 L 113.988281 51.390625 C 111.707031 50.863281 111.042969 50.828125 108.9375 51.160156 C 106.726562 51.523438 105.632812 51.953125 104.078125 53.101562 C 103.332031 53.65625 102.824219 54.171875 102.105469 55.160156 C 101.277344 56.300781 101.066406 56.703125 100.71875 57.878906 C 100.382812 58.96875 100.207031 59.328125 99.902344 59.550781 C 99.300781 59.988281 98.046875 61.222656 97.300781 62.121094 C 95.917969 63.757812 94.492188 67.125 94.296875 69.179688 C 94.09375 71.4375 94.628906 75.371094 95.394531 77.191406 C 96.050781 78.753906 97.875 81.148438 99.492188 82.558594 C 101.820312 84.585938 104.832031 86.007812 107.671875 86.4375 C 110.109375 86.804688 110.378906 86.777344 126.582031 84.253906 L 141.519531 81.914062 L 142.988281 81.273438 C 147.441406 79.34375 150.332031 76.535156 151.976562 72.574219 C 153.703125 68.421875 153.289062 62.84375 150.972656 59.082031 C 149.957031 57.410156 148.070312 55.398438 146.75 54.554688 C 145.761719 53.929688 144.449219 53.316406 143.535156 53.066406 C 142.792969 52.855469 142.757812 52.820312 142.34375 51.996094 C 142.105469 51.527344 141.496094 50.695312 140.984375 50.132812 C 137.949219 46.839844 132.867188 44.742188 128.3125 44.898438 C 126.832031 44.953125 126.296875 45.039062 124.519531 45.550781 Z M 129.667969 48.226562 C 131.855469 48.386719 133.859375 48.984375 135.691406 50.023438 C 137.699219 51.15625 138.832031 52.4375 140.421875 55.332031 C 140.726562 55.871094 140.832031 55.9375 141.785156 56.003906 C 143.183594 56.113281 145.253906 57.371094 146.832031 59.078125 C 148.628906 61.023438 149.621094 63.585938 149.6875 66.457031 C 149.714844 67.929688 149.558594 68.925781 149.019531 70.621094 C 148 73.871094 145.960938 76.1875 142.539062 77.980469 L 141.527344 78.511719 L 125.53125 81.042969 L 109.53125 83.5625 L 108.125 83.332031 C 104.085938 82.667969 100.441406 79.910156 98.742188 76.242188 C 98.109375 74.894531 97.613281 72.796875 97.535156 71.253906 C 97.421875 68.441406 97.699219 67.359375 99.242188 64.820312 C 99.9375 63.6875 101.1875 62.507812 102.453125 61.789062 C 103.621094 61.125 103.722656 61 103.625 60.375 C 103.582031 60.09375 103.640625 59.429688 103.761719 58.902344 C 104.027344 57.726562 104.808594 56.621094 106.007812 55.734375 C 107.269531 54.796875 108.234375 54.425781 109.835938 54.257812 C 111.878906 54.046875 112.957031 54.300781 115.214844 55.542969 C 115.859375 55.90625 116.4375 56.183594 116.476562 56.175781 C 116.53125 56.167969 116.75 55.820312 116.980469 55.386719 C 117.765625 53.953125 118.589844 52.851562 119.582031 51.929688 C 122.480469 49.246094 125.980469 47.957031 129.667969 48.226562 Z M 129.667969 48.226562 " fill-opacity="1" fill-rule="nonzero"/></g></g></g></g></g><g clip-path="url(#7d60ceecdf)"><g clip-path="url(#52ced32cd1)"><g clip-path="url(#194f67a16d)"><g clip-path="url(#250440c640)"><g clip-path="url(#d8efc15805)"><path fill="#443320" d="M 109.8125 61.3125 C 107.929688 62.210938 106.152344 63.855469 105.316406 65.476562 C 104.679688 66.726562 104.136719 68.847656 104.164062 70.046875 C 104.191406 72.050781 104.820312 73.863281 106.03125 75.488281 C 106.859375 76.589844 108.847656 78.023438 110.023438 78.359375 C 113.015625 79.226562 115.917969 78.742188 118.304688 76.972656 C 119.574219 76.023438 122.785156 71.855469 122.695312 71.269531 C 122.652344 71 120.015625 69.09375 119.921875 69.285156 C 118.734375 71.644531 117.21875 73.730469 116.039062 74.558594 C 115.226562 75.136719 115.097656 75.183594 113.84375 75.378906 C 112.628906 75.570312 112.4375 75.5625 111.648438 75.316406 C 110.496094 74.9375 109.148438 74.015625 108.597656 73.226562 C 107.726562 71.929688 107.441406 70.636719 107.617188 68.640625 C 107.691406 67.902344 107.808594 67.597656 108.261719 66.925781 C 109.484375 65.136719 111.089844 64.226562 113.058594 64.21875 C 114.597656 64.207031 115.328125 64.503906 117.292969 65.957031 C 118.222656 66.65625 119.359375 67.460938 119.796875 67.71875 C 120.796875 68.339844 122.796875 69.941406 124.054688 71.136719 C 124.875 71.921875 127.925781 74.039062 129.542969 74.945312 C 130.414062 75.421875 131.761719 75.742188 133.050781 75.773438 C 134.449219 75.800781 135.078125 75.714844 136.125 75.34375 C 138.136719 74.660156 139.667969 73.625 140.519531 72.355469 C 141.554688 70.855469 141.777344 70.355469 142.207031 68.742188 L 142.613281 67.164062 L 142.308594 65.230469 C 142.019531 63.402344 141.96875 63.246094 141.46875 62.421875 C 140.140625 60.242188 138.679688 58.925781 136.761719 58.21875 C 134.324219 57.316406 132.132812 57.265625 130.238281 58.082031 C 127.949219 59.070312 127.0625 59.785156 125.398438 61.988281 C 123.839844 64.0625 123.871094 63.992188 124.648438 64.851562 C 124.996094 65.25 125.433594 65.753906 125.617188 65.96875 C 125.800781 66.1875 126.0625 66.363281 126.1875 66.371094 C 126.335938 66.375 126.929688 65.722656 127.757812 64.648438 C 129.335938 62.597656 130.226562 61.746094 131.117188 61.402344 C 132.96875 60.6875 134.738281 60.886719 136.417969 62.015625 C 139.078125 63.808594 139.753906 67.324219 137.953125 70.039062 C 136.617188 72.054688 134.28125 72.914062 131.925781 72.273438 C 131.109375 72.046875 128.503906 70.160156 126.390625 68.28125 C 124.882812 66.945312 119.808594 63.265625 117.832031 62.085938 C 117 61.589844 115.894531 61.066406 115.191406 60.847656 C 114 60.476562 113.984375 60.476562 112.296875 60.703125 C 110.972656 60.882812 110.445312 61.007812 109.8125 61.3125 Z M 109.8125 61.3125 " fill-opacity="1" fill-rule="nonzero"/></g></g></g></g></g></svg>